<svg width="40" height="30" viewBox="0 0 76 90" fill="none" xmlns="http://www.w3.org/2000/svg"><path d="M72.4681 75.3438C70.2034 74.8984 69.0297 73.8694 69.0297 73.8694C67.0935 72.4703 66.7444 69.5258 66.7444 69.5258L65.6127 61.5539C65.5722 60.2858 64.6219 56.7179 64.6219 56.7179C62.0887 46.3088 53.3954 45.8825 53.3954 45.8825C53.1765 45.8466 53.1914 45.5495 53.1914 45.5495C52.8564 43.1435 54.4786 39.5684 54.4786 39.5684L57.4708 34.0105C60.7141 27.8812 60.6495 23.6064 60.6495 23.6064C61.3622 13.5192 54.9572 7.42698 54.9572 7.42698C47.6958 -0.485672 38.638 -0.0231247 38.0269 0.0181274C37.4157 -0.0231247 28.3587 -0.485672 21.0962 7.42698C21.0962 7.42698 14.6919 13.5192 15.4046 23.6064C15.4046 23.6064 15.3397 27.8812 18.5833 34.0105L21.5759 39.5684C21.5759 39.5684 23.1973 43.1435 22.862 45.5495C22.862 45.5495 22.8772 45.8466 22.6592 45.8825C22.6592 45.8825 13.965 46.3088 11.4319 56.7179C11.4319 56.7179 10.4812 60.2858 10.4407 61.5539L9.30933 69.5258C9.30933 69.5258 8.96021 72.4703 7.02445 73.8694C7.02445 73.8694 5.85031 74.8984 3.58529 75.3438C3.58529 75.3438 -0.00282294 76.1761 0.636957 79.7718C0.636957 79.7718 1.22059 82.7182 4.60551 82.5872C4.60551 82.5872 9.0007 82.868 13.3241 79.7833C13.3241 79.7833 17.5088 77.2876 19.4408 69.9352C19.4408 69.9352 22.0648 61.0264 22.9857 59.8443C22.9857 59.8443 23.242 59.2866 23.8241 59.2717L24.2936 59.2492C24.2936 59.2492 24.6644 59.1801 24.6644 60.0387C24.6644 60.0387 25.2404 66.6519 24.8657 69.4226C24.8657 69.4226 24.5487 77.134 20.99 82.5464C20.99 82.5464 19.8174 84.2973 19.5825 84.7369C19.5825 84.7369 18.44 86.9072 20.4365 88.9594C20.4365 88.9594 23.0361 91.328 25.7664 88.9182C25.7664 88.9182 32.1332 83.6724 35.1759 74.0566C35.1759 74.0566 37.58 66.4388 37.9868 61.7598V61.7147L38.0674 61.7598C38.4738 66.4388 40.8778 74.0566 40.8778 74.0566C43.9205 83.6724 50.287 88.9182 50.287 88.9182C53.0172 91.328 55.6168 88.9594 55.6168 88.9594C57.6137 86.9072 56.4709 84.7369 56.4709 84.7369C56.2364 84.2973 55.0641 82.5464 55.0641 82.5464C51.5054 77.134 51.188 69.4226 51.188 69.4226C50.8137 66.6519 51.3893 60.0387 51.3893 60.0387C51.3885 59.0995 51.7602 59.2457 51.7602 59.2457L52.2296 59.2717C52.8117 59.2866 53.068 59.8443 53.068 59.8443C53.9893 61.0264 56.613 69.9352 56.613 69.9352C58.5445 77.2876 62.7289 79.7833 62.7289 79.7833C67.0519 82.868 71.4486 82.5872 71.4486 82.5872C74.8328 82.7182 75.4164 79.7718 75.4164 79.7718C76.0566 76.1761 72.4681 75.3438 72.4681 75.3438Z" fill="#00aeca"></path></svg>